<svg width="1125" height="1117" viewBox="0 0 1125 1117" fill="none" xmlns="http://www.w3.org/2000/svg">
<path d="M1147.99 656.177L841.922 1226.45C822.884 1261.93 784.43 1282.52 744.352 1278.72L95.493 1217.07C42.123 1212 2.24601 1165.75 5.09171 1112.21L30.8856 626.964C31.6205 613.139 35.2183 599.617 41.451 587.254L183.5 305.5L386.204 -29.9669C409.429 -68.4038 455.43 -86.6435 498.684 -74.5667L1059.14 81.9139C1100.08 93.3448 1129.32 129.408 1132.04 171.828L1159.67 602.485C1160.87 621.122 1156.82 639.721 1147.99 656.177Z" fill="#01847F" fill-opacity="0.62"/>
<path d="M55.2277 805.513L386.519 241.378C409.497 202.251 455.938 183.498 499.642 195.7L1059.14 351.914C1100.08 363.345 1129.32 399.408 1132.04 441.828L1157.32 835.886C1159.86 875.456 1138.78 912.789 1103.58 931.051L452.133 1269.07C410.108 1290.88 358.55 1280.22 328.61 1243.55L63.9918 919.39C37.5485 886.997 34.0525 841.571 55.2277 805.513Z" fill="#01847F" fill-opacity="0.35"/>
</svg>
