<svg width="44" height="37" viewBox="0 0 44 37" fill="none" xmlns="http://www.w3.org/2000/svg">
<path d="M22 20.6583L13.0166 28.2125C12.6805 28.4951 12.2527 28.6364 11.7333 28.6364C11.2139 28.6364 10.7861 28.4951 10.45 28.2125C10.1139 27.9298 9.9458 27.5701 9.9458 27.1333C9.9458 26.6965 10.1139 26.3368 10.45 26.0541L19.4333 18.5L10.45 10.9458C10.1139 10.6632 9.9458 10.3035 9.9458 9.86665C9.9458 9.42984 10.1139 9.07012 10.45 8.78748C10.7861 8.50484 11.2139 8.36353 11.7333 8.36353C12.2527 8.36353 12.6805 8.50484 13.0166 8.78748L22 16.3417L30.9833 8.78748C31.3194 8.50484 31.7472 8.36353 32.2666 8.36353C32.7861 8.36353 33.2139 8.50484 33.55 8.78748C33.8861 9.07012 34.0541 9.42984 34.0541 9.86665C34.0541 10.3035 33.8861 10.6632 33.55 10.9458L24.5666 18.5L33.55 26.0541C33.8861 26.3368 34.0541 26.6965 34.0541 27.1333C34.0541 27.5701 33.8861 27.9298 33.55 28.2125C33.2139 28.4951 32.7861 28.6364 32.2666 28.6364C31.7472 28.6364 31.3194 28.4951 30.9833 28.2125L22 20.6583Z" fill="black"/>
</svg>
