<svg width="37" height="32" viewBox="0 0 37 32" fill="none" xmlns="http://www.w3.org/2000/svg">
<path d="M23.3666 18.6667H22.1855L21.7669 18.3067C23.232 16.7867 24.1141 14.8133 24.1141 12.6667C24.1141 7.88 19.7636 4 14.3966 4C9.02953 4 4.67908 7.88 4.67908 12.6667C4.67908 17.4533 9.02953 21.3333 14.3966 21.3333C16.8035 21.3333 19.0161 20.5467 20.7204 19.24L21.1241 19.6133V20.6667L28.5991 27.32L30.8266 25.3333L23.3666 18.6667ZM14.3966 18.6667C10.674 18.6667 7.66908 15.9867 7.66908 12.6667C7.66908 9.34667 10.674 6.66667 14.3966 6.66667C18.1191 6.66667 21.1241 9.34667 21.1241 12.6667C21.1241 15.9867 18.1191 18.6667 14.3966 18.6667Z" fill="black"/>
</svg>
