<svg width="85" height="82" viewBox="0 0 85 82" fill="none" xmlns="http://www.w3.org/2000/svg">
<path d="M77.9564 0.803909H6.95542C3.5707 0.803909 0.810852 3.42756 0.810852 6.6551V76.1488C0.810852 79.3865 3.5707 82 6.95542 82H77.9616C81.3515 82 84.127 79.3865 84.127 76.1488V6.6551C84.127 3.42756 81.3515 0.803909 77.9564 0.803909V0.803909ZM25.5245 69.9931H13.1573V31.2474H25.5297V69.9931H25.5245ZM19.3435 25.9493C15.3756 25.9493 12.1731 22.8182 12.1731 18.9614C12.1731 15.1096 15.3756 11.9785 19.3435 11.9785C23.2958 11.9785 26.5087 15.1096 26.5087 18.9614C26.5087 22.8233 23.301 25.9493 19.3435 25.9493V25.9493ZM71.8014 69.9931H59.455V51.1556C59.455 46.6594 59.3665 40.8792 53.0344 40.8792C46.6035 40.8792 45.6245 45.7713 45.6245 50.8258V69.9982H33.2781V31.2474H45.1194V36.5403H45.2913C46.942 33.4955 50.9724 30.2832 56.9815 30.2832C69.4842 30.2832 71.7962 38.3063 71.7962 48.7451V69.9931H71.8014Z" fill="black"/>
</svg>
