<svg width="84" height="82" viewBox="0 0 84 82" fill="none" xmlns="http://www.w3.org/2000/svg">
<path fill-rule="evenodd" clip-rule="evenodd" d="M42.2746 0C19.2741 0 0.621704 18.1913 0.621704 40.6283C0.621704 58.5759 12.5567 73.8064 29.1106 79.1795C31.1935 79.5503 31.9538 78.2959 31.9538 77.2192C31.9538 76.2543 31.9173 73.6998 31.8965 70.3073C20.3103 72.7603 17.8629 64.8631 17.8629 64.8631C15.9675 60.1706 13.2389 58.9212 13.2389 58.9212C9.45842 56.4023 13.5253 56.4531 13.5253 56.4531C17.7067 56.7425 19.9042 60.6378 19.9042 60.6378C23.6222 66.8488 29.6522 65.0561 32.0267 64.015C32.4068 61.3894 33.4795 59.5967 34.672 58.5861C25.4239 57.5602 15.6967 54.0763 15.6967 38.5055C15.6967 34.0719 17.3214 30.4459 19.9823 27.6019C19.5605 26.576 18.1285 22.4421 20.3989 16.8506C20.3989 16.8506 23.8981 15.7587 31.8548 21.015C35.1771 20.1161 38.7388 19.6641 42.2798 19.6489C45.8155 19.6641 49.3825 20.1161 52.7099 21.015C60.6614 15.7587 64.1555 16.8506 64.1555 16.8506C66.4258 22.4421 64.999 26.576 64.572 27.6019C67.2434 30.4408 68.8524 34.0669 68.8524 38.5055C68.8524 54.1119 59.1148 57.55 49.8303 58.5556C51.3248 59.81 52.6578 62.2883 52.6578 66.0769C52.6578 71.5059 52.6058 75.8886 52.6058 77.2243C52.6058 78.3111 53.3556 79.5757 55.4698 79.1795C72.0132 73.7912 83.9378 58.5759 83.9378 40.6283C83.9378 18.1913 65.2854 0 42.2746 0Z" fill="black"/>
</svg>
